<svg xmlns="http://www.w3.org/2000/svg" xmlns:xlink="http://www.w3.org/1999/xlink" width="500" zoomAndPan="magnify" viewBox="0 0 375 374.999991" height="500" preserveAspectRatio="xMidYMid meet" version="1.2"><defs><clipPath id="edbe8137da"><path d="M 19.71875 27.511719 L 355.277344 27.511719 L 355.277344 347.480469 L 19.71875 347.480469 Z M 19.71875 27.511719 "/></clipPath></defs><g id="38bce42c85"><rect x="0" width="375" y="0" height="374.999991" style="fill:#ffffff;fill-opacity:1;stroke:none;"/><rect x="0" width="375" y="0" height="374.999991" style="fill:#ffffff;fill-opacity:1;stroke:none;"/><g clip-rule="nonzero" clip-path="url(#edbe8137da)"><path style=" stroke:none;fill-rule:evenodd;fill:#324b30;fill-opacity:1;" d="M 187.992188 182.875 C 187.941406 182.875 187.898438 182.875 187.84375 182.859375 C 187.898438 182.875 187.941406 182.875 187.992188 182.875 Z M 188.171875 182.886719 C 188.128906 182.886719 188.101562 182.875 188.0625 182.875 C 188.101562 182.875 188.128906 182.886719 188.171875 182.886719 Z M 125.238281 72.433594 C 125.265625 71.691406 130.644531 74.777344 131.742188 75.34375 C 135.519531 77.320312 140.703125 80.554688 146.421875 84.535156 C 158.75 93.160156 171.753906 103.59375 180.839844 115.546875 C 192.988281 131.546875 197.550781 149.398438 193.4375 173.355469 C 192.773438 177.214844 191.769531 180.515625 190.277344 182.035156 C 189.214844 178.5 188.117188 174.832031 187.152344 172.207031 C 178.152344 147.921875 167.425781 128.078125 152.910156 106.867188 C 143.011719 92.402344 132.097656 78.078125 127.304688 74.222656 C 125.878906 73.070312 124.804688 72.136719 126.894531 74.585938 C 128.648438 76.617188 132.152344 80.488281 135.230469 85.238281 C 140.800781 93.792969 149.273438 105.027344 157.71875 118.320312 C 168.808594 135.769531 181.816406 161.050781 187.65625 182.84375 C 187.695312 182.84375 187.734375 182.859375 187.777344 182.859375 C 184.085938 182.507812 177.199219 178.269531 170.859375 173.761719 C 157.703125 164.398438 148.523438 156.410156 141.328125 141.371094 C 134.824219 127.757812 130.820312 109.984375 128.1875 94.945312 C 126.378906 84.644531 125.144531 74.832031 125.238281 72.433594 Z M 206.296875 165.003906 C 206.269531 164.992188 206.242188 164.992188 206.214844 164.980469 C 206.242188 164.992188 206.269531 164.992188 206.296875 165.003906 Z M 206.542969 165.058594 C 206.5 165.058594 206.445312 165.046875 206.40625 165.03125 C 206.445312 165.046875 206.5 165.058594 206.542969 165.058594 Z M 206.773438 165.101562 C 206.714844 165.085938 206.664062 165.085938 206.59375 165.074219 C 206.664062 165.085938 206.714844 165.085938 206.773438 165.101562 Z M 222.332031 78.636719 C 223.269531 72.585938 223.445312 70.609375 225.210938 77.496094 C 227.667969 86.757812 230.070312 96.636719 231.292969 106.613281 C 233.574219 125.113281 232.054688 147.898438 216.425781 160.5 C 213.246094 163.054688 208.945312 165.328125 206.773438 165.101562 C 208.441406 161.457031 210.164062 157.898438 211.753906 154.175781 C 213.789062 149.414062 215.460938 144.511719 216.695312 139.515625 C 221.664062 119.351562 224.734375 98.410156 224.082031 77.617188 C 223.917969 72.109375 223.554688 73.613281 223.511719 77.578125 C 223.417969 87.554688 222.601562 97.421875 221.230469 107.101562 C 219.4375 119.824219 216.777344 134.523438 212.636719 146.582031 C 210.734375 152.132812 207.816406 158.320312 205.101562 164.246094 C 204.421875 163.570312 203.867188 162.648438 203.417969 161.527344 C 197.605469 146.921875 204.4375 129.121094 210.355469 115.777344 C 213.289062 109.144531 216.4375 102.660156 218.789062 94.699219 C 220.347656 89.394531 221.515625 83.941406 222.332031 78.636719 Z M 214.183594 194.484375 C 224.042969 179.597656 240.457031 164.992188 263.023438 154.246094 C 277.402344 147.410156 297.683594 141.089844 309.308594 140.65625 C 309.945312 140.628906 310.503906 140.65625 310.625 140.832031 C 310.734375 140.992188 310.636719 141.292969 310.285156 141.792969 C 309.675781 142.726562 308.25 144.023438 306.714844 145.433594 C 303.171875 148.679688 299.464844 153.609375 296.3125 158.820312 C 284.707031 177.988281 284.433594 200.835938 275.335938 221.789062 C 265.546875 244.351562 250.464844 261.730469 229.230469 264.519531 C 226.308594 264.898438 223.484375 265.101562 220.808594 264.925781 C 218.082031 264.738281 215.664062 264.113281 213.53125 263.113281 C 217.945312 254.910156 222.238281 246.625 226.578125 238.398438 C 246.265625 201.1875 267.339844 165.453125 305.53125 144 C 309.253906 141.914062 303.101562 144.511719 296.179688 148.679688 C 290.175781 152.28125 283.851562 157.101562 279.84375 160.324219 C 272.226562 166.441406 265.03125 173.679688 258.542969 181.328125 C 243.457031 199.101562 232.800781 218.988281 221.664062 239.304688 C 217.753906 246.464844 213.820312 253.597656 209.757812 260.675781 L 209.757812 260.691406 C 207.65625 258.902344 205.96875 256.601562 204.707031 253.882812 C 203.199219 250.671875 202.359375 247.097656 201.964844 243.429688 C 200.335938 228.070312 205.808594 207.113281 214.183594 194.484375 Z M 95.761719 334.054688 C 87.5625 329.4375 80.039062 323.957031 73.796875 318.070312 C 68.175781 312.761719 62.988281 307.117188 58.304688 301.488281 C 51.378906 293.175781 45.226562 284.121094 39.960938 274.402344 C 34.828125 264.914062 30.539062 254.800781 27.238281 244.121094 C 23.925781 233.441406 21.738281 222.683594 20.625 211.972656 C 19.472656 200.984375 19.429688 190.035156 20.4375 179.285156 C 21.46875 168.320312 23.585938 157.546875 26.707031 147.113281 C 29.859375 136.582031 34.039062 126.390625 39.171875 116.695312 C 44.304688 107.003906 50.386719 97.816406 57.339844 89.273438 C 64.222656 80.828125 71.949219 73.003906 80.460938 65.980469 C 88.796875 59.074219 97.882812 52.941406 107.628906 47.691406 C 117.148438 42.574219 127.289062 38.296875 138.003906 35.007812 C 148.714844 31.707031 159.507812 29.527344 170.25 28.417969 C 181.285156 27.265625 192.257812 27.222656 203.039062 28.226562 C 214.035156 29.257812 224.84375 31.367188 235.308594 34.480469 C 245.886719 37.621094 256.097656 41.789062 265.820312 46.90625 C 275.539062 52.023438 284.757812 58.085938 293.328125 65.015625 C 301.8125 71.878906 309.648438 79.582031 316.695312 88.066406 C 323.617188 96.378906 329.769531 105.433594 335.039062 115.152344 C 340.167969 124.640625 344.460938 134.753906 347.757812 145.433594 C 351.070312 156.113281 353.257812 166.875 354.382812 177.578125 C 355.523438 188.570312 355.566406 199.523438 354.5625 210.269531 C 353.527344 221.234375 351.410156 232.007812 348.289062 242.445312 C 345.140625 252.988281 340.957031 263.167969 335.824219 272.859375 C 331.328125 281.359375 326.089844 289.464844 320.183594 297.101562 C 306.089844 315.308594 288.355469 330.425781 268.101562 341.457031 L 268.5625 341.148438 C 313.871094 309.28125 344.472656 261.042969 347.851562 205.410156 C 349.019531 186.269531 346.835938 166.722656 340.886719 147.542969 C 337.726562 137.324219 333.625 127.648438 328.710938 118.578125 C 323.671875 109.265625 317.78125 100.601562 311.152344 92.644531 C 304.40625 84.523438 296.898438 77.144531 288.792969 70.578125 C 280.59375 63.949219 271.765625 58.140625 262.464844 53.242188 C 253.164062 48.355469 243.375 44.359375 233.261719 41.355469 C 223.253906 38.378906 212.910156 36.363281 202.371094 35.375 C 192.039062 34.414062 181.53125 34.453125 170.980469 35.550781 C 160.703125 36.621094 150.371094 38.703125 140.121094 41.855469 C 119.347656 48.261719 100.800781 58.464844 85.050781 71.5 C 68.675781 85.023438 55.304688 101.589844 45.527344 120.039062 C 40.625 129.3125 36.621094 139.070312 33.605469 149.15625 C 30.617188 159.144531 28.597656 169.445312 27.605469 179.949219 C 26.640625 190.25 26.683594 200.714844 27.78125 211.246094 C 28.855469 221.492188 30.945312 231.789062 34.109375 242.011719 C 37.273438 252.230469 41.371094 261.90625 46.289062 270.976562 C 51.230469 280.113281 57.867188 289.832031 65.554688 298.984375 C 71.730469 306.332031 79.308594 313.722656 87.957031 320.234375 C 96.007812 326.285156 105.960938 332.0625 116.589844 336.097656 C 143.378906 346.261719 181.3125 342.972656 183.230469 307.957031 C 183.457031 303.679688 183.308594 299.578125 180.824219 293.59375 C 178.449219 287.84375 176.523438 280.613281 174.8125 275.265625 C 173.058594 269.757812 171.308594 264.589844 169.445312 259.605469 C 169.433594 259.566406 169.417969 259.550781 169.40625 259.523438 C 170.628906 258.984375 171.648438 258.308594 172.597656 257.386719 C 172.652344 257.535156 172.707031 257.644531 172.761719 257.808594 C 176.265625 266.710938 179.085938 275.863281 182.074219 285.011719 C 183.796875 290.320312 185.035156 292.09375 186.132812 283.660156 C 186.40625 281.535156 186.675781 278.9375 187.03125 276.082031 C 189.921875 252.566406 191.402344 204.3125 190.195312 195.21875 C 189.679688 191.332031 188.824219 187.230469 187.683594 182.996094 C 187.683594 182.941406 187.667969 182.898438 187.65625 182.859375 C 188.671875 182.980469 189.542969 182.804688 190.277344 182.058594 C 190.289062 182.113281 190.300781 182.128906 190.316406 182.183594 C 190.832031 183.914062 191.347656 185.605469 191.835938 187.109375 C 191.945312 187.476562 192.242188 188.597656 192.542969 189.722656 C 193.425781 192.957031 194.660156 189.03125 195.191406 187.730469 C 197.988281 180.828125 200.609375 174.277344 203.785156 167.171875 C 204.207031 166.210938 204.640625 165.277344 205.085938 164.289062 C 205.496094 164.695312 206.1875 165.085938 206.757812 165.140625 C 205.753906 167.320312 204.804688 169.484375 203.894531 171.785156 C 202.101562 176.320312 200.242188 180.84375 198.761719 185.5 C 197.375 189.871094 196.304688 194.257812 195.679688 198.804688 C 195.21875 202.1875 195 205.476562 194.878906 208.792969 C 194.292969 224.984375 194.320312 241.226562 193.546875 257.414062 C 193.058594 267.566406 192.214844 277.730469 190.519531 287.691406 C 190.234375 289.398438 190.980469 290.5625 192.132812 289.058594 C 194.632812 285.773438 199.535156 278.054688 205.589844 267.824219 C 207.003906 265.441406 208.320312 263.195312 209.675781 260.8125 C 210.816406 261.773438 212.054688 262.640625 213.449219 263.289062 C 211.917969 266.132812 210.476562 268.785156 208.917969 271.613281 C 204.152344 280.25 199.398438 288.316406 195.339844 293.90625 C 194.566406 294.976562 193.75 295.898438 193.03125 296.640625 C 190.996094 298.726562 189.976562 301.269531 189.5 304.015625 C 189.285156 305.238281 189.175781 306.480469 189.121094 307.753906 C 187.546875 348.15625 144.640625 353.722656 113.386719 342.203125 C 107.101562 339.886719 101.140625 337.074219 95.761719 334.054688 Z M 175.976562 252.554688 C 175.109375 254.328125 173.996094 255.9375 172.585938 257.332031 C 171.144531 253.71875 169.597656 250.144531 167.886719 246.625 C 160.253906 230.910156 149.9375 215.96875 138.449219 203.90625 C 133.15625 198.34375 127.820312 193.757812 122.253906 189.910156 C 114.460938 184.511719 106.21875 180.613281 97.121094 177.484375 C 89.964844 175.035156 82.335938 173.019531 74.933594 171.4375 C 71.269531 170.652344 67.605469 170 63.746094 169.605469 C 60.746094 169.296875 59.851562 169.511719 63.992188 170.191406 C 66.273438 170.570312 69.707031 171.136719 73.375 172.152344 C 80.609375 174.128906 93.359375 178.027344 103.191406 182.113281 C 110.859375 185.296875 118.558594 189.75 125.523438 195.433594 C 132.460938 201.105469 138.679688 208.035156 143.882812 214.425781 C 145.699219 216.671875 147.464844 218.957031 149.148438 221.289062 C 158.382812 234.039062 164.328125 246.003906 169.40625 259.5 C 148.226562 268.8125 116.277344 233.199219 107.453125 217.441406 C 102.835938 209.199219 98.53125 201.050781 92.886719 193.6875 C 84.195312 182.34375 73.359375 175.171875 60.109375 169.984375 C 59.347656 169.6875 58.929688 169.472656 59.144531 169.308594 C 59.226562 169.257812 59.320312 169.1875 59.445312 169.121094 C 60.71875 168.335938 62.554688 167.589844 64.726562 166.902344 C 78.355469 162.570312 94.949219 161.132812 109.152344 162.867188 C 123.554688 164.625 137.390625 169.5 148.402344 177.878906 C 157.878906 185.078125 165.523438 194.460938 170.738281 205.300781 C 175.542969 215.277344 178.367188 226.984375 178.542969 238.097656 C 178.613281 243.203125 178.015625 248.386719 175.976562 252.554688 "/></g></g></svg>